<svg width="116" height="42" viewBox="0 0 116 42" fill="none" xmlns="http://www.w3.org/2000/svg">
<g clip-path="url(#clip0_11_3722)">
<path d="M43.3355 19.0468C45.07 19.0468 46.2395 18.4621 47.1987 17.5912C47.3827 17.4419 47.4746 17.2429 47.4746 17.0314C47.4746 16.6209 47.1199 16.285 46.6731 16.285C46.4497 16.285 46.2789 16.3845 46.1475 16.484C45.4379 17.106 44.5707 17.5415 43.375 17.5415C41.7193 17.5415 40.3133 16.5089 40.0374 14.6179H47.0804C47.5272 14.6179 47.9214 14.282 47.9214 13.8217C47.9214 12.5403 47.4878 11.3086 46.6731 10.4005C45.8584 9.47986 44.6495 8.89514 43.1384 8.89514C41.7193 8.89514 40.471 9.45498 39.6038 10.3756C38.7234 11.2962 38.2109 12.5527 38.2109 13.9461V13.9834C38.2109 15.4763 38.7891 16.7453 39.722 17.641C40.655 18.5367 41.9427 19.0468 43.3487 19.0468H43.3355ZM43.099 10.3632C44.9386 10.3632 45.911 11.6943 46.1081 13.2992H40.0243C40.2739 11.5823 41.4959 10.3632 43.0859 10.3632H43.099Z" fill="black"/>
<path d="M55.0035 10.612C55.4503 10.612 55.8314 10.2761 55.8314 9.8531C55.8314 9.44255 55.4634 9.09421 55.0035 9.09421H52.5595V7.00416C52.5595 6.54386 52.1522 6.15819 51.6528 6.14575C51.1404 6.14575 50.7725 6.54386 50.7725 7.00416V9.09421H50.1023C49.6687 9.09421 49.3008 9.43011 49.3008 9.8531C49.3008 10.2636 49.6687 10.612 50.1023 10.612H50.7725V16.173C50.7725 17.1558 51.0878 17.8774 51.6266 18.3377C52.1653 18.798 52.9143 18.9846 53.7421 18.9846C54.3334 18.9846 54.8196 18.8851 55.2663 18.7234C55.5554 18.6114 55.7788 18.3626 55.7788 18.0391C55.7788 17.6286 55.424 17.2927 54.9904 17.2927C54.7933 17.2927 54.5962 17.4171 54.0837 17.4171C53.5976 17.4171 53.2165 17.3176 52.9668 17.0936C52.7172 16.8697 52.5595 16.5338 52.5464 15.974V10.5871H54.9904L55.0035 10.612Z" fill="black"/>
<path d="M58.9468 9.00711C58.4475 9.00711 58.0664 9.40521 58.0664 9.86552V18.0764C58.0664 18.5492 58.4606 18.9348 58.9731 18.9348C59.4855 18.9348 59.8534 18.5492 59.8534 18.0764V13.2867C59.8534 11.5823 61.0623 10.4751 62.7048 10.4627C64.3868 10.4627 65.3066 11.4704 65.3197 13.1748V18.0764C65.3197 18.5492 65.7139 18.9348 66.2264 18.9348C66.7388 18.9348 67.1067 18.5616 67.1067 18.0764V12.8264C67.1067 11.6694 66.752 10.6866 66.0555 9.98993C65.3723 9.29325 64.3736 8.89514 63.1253 8.89514C61.5748 8.89514 60.5367 9.5545 59.8534 10.4254V9.86552C59.8534 9.39277 59.4592 9.00711 58.9468 9.00711Z" fill="black"/>
<path d="M74.4776 19.0468C76.2121 19.0468 77.3815 18.4621 78.3407 17.5912C78.5247 17.4419 78.6167 17.2429 78.6167 17.0314C78.6167 16.6209 78.2619 16.285 77.8152 16.285C77.5918 16.285 77.4209 16.3845 77.2895 16.484C76.5668 17.106 75.7127 17.5415 74.517 17.5415C72.8614 17.5415 71.4554 16.5089 71.1794 14.6179H78.2225C78.6692 14.6179 79.0634 14.282 79.0634 13.8217C79.0634 12.5403 78.6298 11.3086 77.8152 10.4005C77.0005 9.47986 75.7916 8.89514 74.2805 8.89514C72.8614 8.89514 71.6131 9.45498 70.7327 10.3756C69.8523 11.2962 69.3398 12.5527 69.3398 13.9461V13.9834C69.3398 15.4763 69.918 16.7453 70.8509 17.641C71.7839 18.5367 73.0716 19.0468 74.4776 19.0468ZM74.2411 10.3632C76.0807 10.3632 77.053 11.6943 77.2501 13.2992H71.1663C71.416 11.5823 72.638 10.3632 74.2411 10.3632Z" fill="black"/>
<path d="M81.2575 10.612H81.9145V16.173C81.9145 17.1558 82.2299 17.8774 82.7686 18.3377C83.3074 18.798 84.0563 18.9846 84.8842 18.9846C85.4755 18.9846 85.9616 18.8851 86.4084 18.7233C86.6975 18.6114 86.9209 18.3626 86.9209 18.0391C86.9209 17.6286 86.5661 17.2927 86.1325 17.2927C85.9354 17.2927 85.7383 17.4171 85.2258 17.4171C84.7396 17.4171 84.3586 17.3175 84.1089 17.0936C83.8592 16.8697 83.7015 16.5338 83.6884 15.9739V10.5871H86.1325C86.5792 10.5871 86.9603 10.2512 86.9603 9.8282C86.9603 9.41765 86.5924 9.06931 86.1325 9.06931H83.6884V6.97926C83.6884 6.51895 83.2811 6.13329 82.7818 6.12085C82.2693 6.12085 81.9014 6.51895 81.9014 6.97926V9.06931H81.2312C80.7976 9.06931 80.4297 9.40521 80.4297 9.8282C80.4297 10.2387 80.7976 10.5871 81.2312 10.5871L81.2575 10.612Z" fill="black"/>
<path d="M98.0107 13.8216C98.0107 12.5402 97.5771 11.3085 96.7624 10.4004C95.9477 9.47973 94.7388 8.89502 93.2277 8.89502C91.8086 8.89502 90.5603 9.45485 89.6799 10.3755C88.7996 11.2961 88.2871 12.5526 88.2871 13.946V13.9833C88.2871 15.4762 88.8653 16.7451 89.7982 17.6409C90.7311 18.5366 92.0189 19.0467 93.4248 19.0467C95.1593 19.0467 96.3288 18.462 97.288 17.5911C97.472 17.4418 97.564 17.2428 97.564 17.0313C97.564 16.6207 97.2092 16.2848 96.7624 16.2848C96.539 16.2848 96.3682 16.3844 96.2368 16.4839C95.5141 17.1059 94.66 17.5413 93.4643 17.5413C91.8086 17.5413 90.4026 16.5088 90.1267 14.6178H97.1697C97.6165 14.6178 98.0107 14.2819 98.0107 13.8216ZM93.1883 10.363C95.0279 10.363 96.0003 11.6942 96.1974 13.299H90.1136C90.3632 11.5822 91.5852 10.363 93.1883 10.363Z" fill="black"/>
<path d="M101.23 9.00705C100.731 9.00705 100.35 9.40515 100.35 9.86546V18.0764C100.35 18.5491 100.744 18.9348 101.256 18.9348C101.769 18.9348 102.137 18.5367 102.137 18.0764V14.8542C102.137 12.1794 103.661 10.898 105.527 10.6741C105.974 10.6119 106.315 10.276 106.315 9.82814C106.315 9.59176 106.236 9.38027 106.079 9.21854C105.921 9.05681 105.698 8.96973 105.435 8.96973C104.252 8.96973 102.951 9.75349 102.15 11.0598V9.86546C102.15 9.39271 101.756 9.00705 101.243 9.00705H101.23Z" fill="black"/>
<path d="M108.156 18.263C108.891 18.773 109.851 19.0343 110.81 19.0343C112.426 19.0343 113.543 18.3874 114.279 17.6161V18.1261C114.279 18.3501 114.371 18.5491 114.515 18.686C114.673 18.8352 114.883 18.9223 115.133 18.9223C115.369 18.9223 115.593 18.8352 115.751 18.686C115.908 18.5367 116 18.3252 116 18.0888V12.9134C116 11.6818 115.645 10.7239 114.936 10.0521C114.161 9.31807 113.044 8.96973 111.611 8.96973C110.324 8.96973 109.286 9.2061 108.287 9.61665C108.037 9.71617 107.788 9.96499 107.788 10.3258C107.788 10.7363 108.169 11.0722 108.589 11.0722H108.602L108.891 11.01H108.905H108.918C109.64 10.7114 110.468 10.4875 111.441 10.4875C112.347 10.4875 113.057 10.699 113.53 11.0971C114.003 11.4952 114.266 12.0924 114.266 12.9259V13.0752C113.425 12.8637 112.544 12.7144 111.349 12.7144C110.061 12.7144 108.97 12.9881 108.182 13.523C107.394 14.058 106.934 14.8791 106.934 15.9117V15.949C106.934 16.9567 107.433 17.7529 108.169 18.263H108.156ZM114.292 15.215C114.292 15.9241 113.937 16.5213 113.359 16.9443C112.781 17.3797 111.979 17.6285 111.099 17.6285C110.455 17.6285 109.851 17.4543 109.43 17.1557C109.01 16.8572 108.747 16.4342 108.747 15.8868V15.8495C108.747 14.7547 109.68 14.0456 111.519 14.0331C112.663 14.0331 113.596 14.2197 114.305 14.4063V15.215H114.292Z" fill="black"/>
<path d="M42.6771 25.8518C41.5602 25.8518 40.5747 26.0633 39.4053 26.5485C39.2739 26.5982 39.0899 26.7724 39.0899 27.0088C39.0899 27.2576 39.3264 27.494 39.6024 27.494L39.8389 27.4318C40.7587 27.0212 41.6653 26.8097 42.6114 26.8097C44.6613 26.8097 45.7913 27.805 45.7913 29.5965V29.9199C44.9766 29.7209 44.0043 29.5342 42.5983 29.5342C39.9046 29.5342 38.2227 30.7161 38.2227 32.632V32.6693C38.2227 33.5899 38.6563 34.3613 39.471 34.9087C40.1674 35.3814 41.1266 35.6551 42.099 35.6551C44.0831 35.6551 45.2394 34.6847 45.8044 34.0005V34.9833C45.8044 35.2943 46.0278 35.5058 46.33 35.5058C46.6323 35.5058 46.8556 35.2943 46.8556 34.9833V29.5467C46.8556 28.4021 46.5271 27.5188 45.8307 26.8719C45.108 26.1877 44.0174 25.8269 42.6771 25.8269V25.8518ZM39.3658 32.5947C39.3658 31.2884 40.5879 30.4797 42.5457 30.4797C43.9386 30.4797 45.016 30.6912 45.8176 30.8903V31.898C45.8176 33.5029 44.2408 34.7096 42.1515 34.7096C40.7587 34.7096 39.3658 34.0005 39.3658 32.632V32.5947Z" fill="black"/>
<path d="M58 33.2168C57.8423 33.2168 57.724 33.3039 57.6452 33.3786C56.7254 34.2494 55.7005 34.6973 54.5967 34.6973C52.3629 34.6973 50.6022 32.9431 50.6022 30.7162V30.6789C50.6022 28.4645 52.3235 26.7352 54.5179 26.7352C55.8976 26.7352 56.8174 27.3946 57.5269 28.029L57.8817 28.1534H57.908C58.2102 28.1534 58.4599 27.9295 58.4599 27.6434C58.4599 27.5065 58.3942 27.3572 58.3022 27.2701C57.5138 26.5735 56.3706 25.7773 54.5442 25.7773C51.7453 25.7773 49.459 27.9917 49.459 30.7162V30.7536C49.459 33.4656 51.7453 35.6677 54.5442 35.6677C56.0421 35.6677 57.2247 35.17 58.3942 34.0379L58.5256 33.7393V33.7145C58.5256 33.4656 58.2628 33.2168 58 33.2168Z" fill="black"/>
<path d="M65.7788 26.9467C66.0547 26.9467 66.2912 26.7352 66.2912 26.4864C66.2912 26.2376 66.0547 26.0012 65.7788 26.0012H62.7565V23.4633C62.7565 23.1771 62.52 22.9408 62.2047 22.9408C61.8893 22.9408 61.6791 23.1647 61.6791 23.4633V26.0012H60.6804C60.4045 26.0012 60.168 26.2127 60.168 26.4615C60.168 26.7103 60.4045 26.9467 60.6804 26.9467H61.6791V32.9929C61.6791 34.6351 62.7303 35.6179 64.5042 35.6179C65.1086 35.6179 65.5816 35.4935 65.9233 35.3815C66.1467 35.2944 66.2781 35.1451 66.2781 34.9337C66.2781 34.6848 66.0416 34.4733 65.7919 34.4733L65.5948 34.5231C65.424 34.5729 65.1349 34.66 64.675 34.66C63.4136 34.66 62.7697 34.0752 62.7697 32.9058V26.9467H65.7919H65.7788Z" fill="black"/>
<path d="M69.5501 22.2441C69.1822 22.2441 68.9062 22.5054 68.9062 22.8537V23.1648C68.9062 23.5131 69.1822 23.7744 69.5501 23.7744C69.918 23.7744 70.2203 23.5131 70.2203 23.1648V22.8537C70.2203 22.5054 69.9312 22.2441 69.5501 22.2441Z" fill="black"/>
<path d="M69.549 25.9141C69.2468 25.9141 69.0234 26.138 69.0234 26.4366V34.9958C69.0234 35.2944 69.26 35.5184 69.5753 35.5184C69.8907 35.5184 70.1009 35.3069 70.1009 34.9958V26.4366C70.1009 26.138 69.8644 25.9141 69.549 25.9141Z" fill="black"/>
<path d="M81.7053 25.9141C81.4556 25.9141 81.2848 26.0385 81.1797 26.2873L77.5924 34.2121L74.0578 26.3122C73.9658 26.1131 73.8344 25.9141 73.4928 25.9141C73.1511 25.9141 72.9277 26.138 72.9277 26.4366L73.0066 26.7352L76.9617 35.1451C77.0537 35.3442 77.2114 35.5681 77.5662 35.5681H77.6056C77.9604 35.5681 78.118 35.3317 78.21 35.1451L82.1914 26.6854L82.244 26.4366C82.244 26.1505 82.0075 25.9141 81.6921 25.9141H81.7053Z" fill="black"/>
<path d="M88.0912 25.8519C86.9743 25.8519 85.9888 26.0634 84.8193 26.5486C84.6879 26.5983 84.504 26.7725 84.504 27.0089C84.504 27.2577 84.7405 27.4941 85.0164 27.4941L85.2529 27.4319C86.1727 27.0213 87.0794 26.8098 88.0255 26.8098C90.0753 26.8098 91.2054 27.8051 91.2054 29.5966V29.92C90.3907 29.721 89.4183 29.5344 88.0123 29.5344C85.3186 29.5344 83.6367 30.7162 83.6367 32.6321V32.6694C83.6367 33.59 84.0703 34.3614 84.885 34.9088C85.5814 35.3815 86.5407 35.6552 87.513 35.6552C89.4972 35.6552 90.6535 34.6848 91.2185 34.0006V34.9834C91.2185 35.2944 91.4419 35.5059 91.7441 35.5059C92.0463 35.5059 92.2697 35.2944 92.2697 34.9834V29.5468C92.2697 28.4022 91.9412 27.519 91.2448 26.872C90.5221 26.1878 89.4315 25.827 88.0912 25.827V25.8519ZM84.7799 32.5948C84.7799 31.2885 86.0019 30.4799 87.9598 30.4799C89.3526 30.4799 90.4301 30.6913 91.2316 30.8904V31.8981C91.2316 33.503 89.6548 34.7097 87.5656 34.7097C86.1727 34.7097 84.7799 34.0006 84.7799 32.6321V32.5948Z" fill="black"/>
<path d="M100.06 26.9467C100.336 26.9467 100.572 26.7352 100.572 26.4864C100.572 26.2376 100.336 26.0012 100.06 26.0012H97.0378V23.4633C97.0378 23.1771 96.8013 22.9408 96.4859 22.9408C96.1706 22.9408 95.9603 23.1647 95.9603 23.4633V26.0012H94.9617C94.6857 26.0012 94.4492 26.2127 94.4492 26.4615C94.4492 26.7103 94.6989 26.9467 94.9617 26.9467H95.9603V32.9929C95.9603 34.6351 97.0115 35.6179 98.7854 35.6179C99.3899 35.6179 99.8629 35.4935 100.205 35.3815C100.428 35.2944 100.559 35.1451 100.559 34.9337C100.559 34.6848 100.323 34.4733 100.073 34.4733L99.876 34.5231C99.7052 34.5729 99.4161 34.66 98.9562 34.66C97.6948 34.66 97.0509 34.0752 97.0509 32.9058V26.9467H100.073H100.06Z" fill="black"/>
<path d="M111.533 30.6666C111.533 27.8301 109.601 25.7773 106.947 25.7773C104.292 25.7773 102.203 27.942 102.203 30.7039V30.7412C102.203 33.5528 104.306 35.6677 107.091 35.6677C108.681 35.6677 109.837 35.2074 110.981 34.1251L111.151 33.8016V33.7768C111.151 33.5155 110.928 33.2916 110.626 33.2916C110.494 33.2916 110.376 33.3413 110.271 33.4409C109.338 34.2993 108.34 34.7098 107.131 34.7098C105.081 34.7098 103.517 33.2542 103.333 31.1518H110.994C111.27 31.1518 111.519 30.9154 111.519 30.6666H111.533ZM110.376 30.2187H103.359C103.557 28.1909 105.041 26.7228 106.92 26.7228C109.259 26.7228 110.245 28.589 110.389 30.2187H110.376Z" fill="black"/>
<path d="M12.4709 41.9873C12.8651 41.9997 13.2462 41.9997 13.6272 41.9873C16.6888 41.8504 19.5665 40.7308 21.8529 38.7527L29.7894 31.8605C31.2874 30.5542 31.3794 28.3647 30.0128 26.9464C28.6462 25.5282 26.3205 25.4286 24.8225 26.7349L16.8859 33.6147C15.769 34.5975 14.3105 35.0951 12.7863 35.0329C11.2752 34.9707 9.85604 34.3487 8.84426 33.2912C6.72871 31.1016 6.87325 27.6804 9.19904 25.6775L12.1424 23.1147L14.5996 25.665C15.9661 27.0833 18.2919 27.1703 19.7899 25.8765C21.2878 24.5827 21.393 22.3807 20.0264 20.9624L17.5692 18.4245L19.6191 16.633C23.745 13.0625 24.021 6.99144 20.2498 3.08505C16.4523 -0.796471 10.04 -1.05773 5.91403 2.51277C1.80121 6.08327 1.51213 12.1544 5.29645 16.0608L7.17547 18.0015L4.23211 20.5519C-1.06331 25.1549 -1.43123 32.9802 3.43057 37.9938C5.78263 40.4198 8.9888 41.838 12.4709 41.9873ZM10.8941 7.63836C11.3934 7.20294 12.0241 6.979 12.6417 6.95412C13.4301 6.9168 14.2448 7.20294 14.8098 7.80009C15.8479 8.87 15.769 10.5371 14.639 11.5199L12.5892 13.2865L10.7233 11.3581C9.69836 10.2882 9.76406 8.62118 10.8941 7.63836Z" fill="url(#paint0_linear_11_3722)"/>
</g>
<defs>
<linearGradient id="paint0_linear_11_3722" x1="15.6709" y1="41.8094" x2="15.6709" y2="-0.122307" gradientUnits="userSpaceOnUse">
<stop stop-color="#009FE3"/>
<stop offset="1" stop-color="#0BBBEF"/>
</linearGradient>
<clipPath id="clip0_11_3722">
<rect width="116" height="42" fill="white"/>
</clipPath>
</defs>
</svg>
